<svg height="192" preserveAspectRatio="xMidYMid" viewBox="0 0 256 192" width="256" xmlns="http://www.w3.org/2000/svg"><path d="m94.9192218 42.1862101-16.9547704 2.7542413-15.469572 6.7825058-13.1396732 8.264716-12.5041556 15.2583968-7.0634086 7.4817744-6.8313152 2.5181634-1.8059455-4.415751 3.1586615-4.5591907.7092296-6.4298832 2.1157354.0856653 2.3119689 2.1087627-.6235642-6.5504125-2.5629884-1.719284.0786926-2.496249-6.0702879 3.4345836-5.4965292 6.4856654-1.1475175 5.796358 2.3518132 4.6418677 2.1924358 7.8851984 4.4585837 2.1107549 4.690677-.2301012 4.4476265-2.5839066-2.9674086 15.0472214 2.9674086 16.741604-3.2662413 7.730801-10.697214 11.524981 1.901572 6.886101 5.0682024 7.978832 9.554677 6.723736 5.0682023.694288 5.6349884.191253-3.5162646 14.431626 12.928498 5.297308 16.1060856 2.119719 5.5094786-3.60193.4243424-9.749914 6.1469884-10.172265.4233463-8.05354 14.8350506 1.05986 13.7751906-1.271035-13.7751906 8.264715 2.3318906 9.96109 8.688063 13.563019 8.477883 3.602926 6.78151-2.755237 2.754241-5.509478 14.199533-10.808779 2.755237 2.330895 22.253074.847689 4.449619-3.60193.423346-6.35916-1.48221-2.753245-1.060856-17.166941-7.417027-14.835051 1.272031-6.570334 4.449619 2.331891 12.504155 11.65547 6.145993.424343 6.781509-2.755238 6.782506-5.086132 3.389759-11.020949 19.922179 1.272031 12.079813-4.66179 9.748918-9.113401 6.993681-13.139673 1.694382-15.4705681-1.483207-18.0146303-3.814101-16.1050895-3.815097-5.0861323-5.297307-1.6963735-9.325572 10.1722646-8.476888 2.9674085-7.418023-12.2919844-7.417027-6.7815098-4.027269-2.5430661-16.107081-13.3518444-12.926506-6.99368089-12.928498-1.05886381-15.046226 2.54306614-13.139673 4.87296496-9.113401 7.4180234-7.204856 8.6890583-7.417027 2.1197199z" fill="#ff0"/><path d="m45.7472996 80.4348016c-14.5222724 16.9388326-11.2958755 37.4815874-7.2715953 57.6099614-2.1476109-5.427798-4.2962179-10.855596-6.4438288-16.280405-.7919066-4.975564-1.5838132-9.951128-2.3747237-14.926693.2261167-5.088124.4512373-10.1752525.6783501-15.262381 2.0350506-4.8610116 4.0701012-9.7230194 6.1051518-14.5850272 3.0520778-4.5223346 6.1051517-9.0446693 9.1582257-13.568 4.7484513-3.9565447 9.4978988-7.9140856 14.2463502-11.8706303 5.1996887-2.148607 10.4013696-4.2962179 15.6020544-6.4448249 6.1051518-.7909105 12.2103035-1.5818211 18.3164514-2.3737277-5.6539144 6.4438288-11.3068327 12.8886537-16.959751 19.3324825-13.6178054 4.4167471-21.6474397 7.3921245-31.0566848 18.3692452" fill="#ffc"/><path d="m114.114241 28.8254008c-10.095564 9.8505214-15.6110192 17.2795019-22.0359219 28.8124513-4.5950506 8.2507705-9.7509105 16.1967316-14.5830351 24.3319533-2.4434552 4.1179144-2.6745525 7.5704281-3.4056965 12.3188794-2.3737276-2.8259611-4.7474552-5.6529183-7.1221789-8.4788794 1.1315797-3.392747 2.2611673-6.784498 3.3917509-10.176249 3.8439845-6.8970583 7.688965-13.7941167 11.5329494-20.690179 8.1402024-8.027642 16.2814008-16.0542879 24.4216031-24.0819299 2.599844-.6793463 5.200685-1.3567004 7.800529-2.0360467" fill="#ffc"/><path d="m163.975471 4.40479377c-8.087409 3.03115954-21.515953 4.03025681-22.447315 13.31100393-.663409 6.5912529.497058 9.9033151 4.46954 16.8770739-9.812669-10.1553307-12.23919-8.5834708-31.205105-5.4277977 2.714397-3.8439844 5.427798-7.6879688 8.140203-11.5319533 4.748451-2.9405136 9.497899-5.8800311 14.24635-8.81954862 6.105152-1.35670038 12.2113-2.71340077 18.316451-4.07010116 2.825961-.11256031 5.652919-.22512063 8.479876-.33867705" fill="#ffc"/><g fill="#cc0"><path d="m186.288311 129.945401c2.691487 1.66151 2.633712 2.865805 2.183471 4.004358 2.123704-.849681 4.247409-1.699362 6.370117-2.547051 1.376622-1.847782 2.751253-3.694568 4.127875-5.54235 1.021012-2.632716 2.042024-5.26344 3.063035-7.896156-1.304902-.981167-2.608809-1.962334-3.914708-2.943502-5.702724.72716-11.405447 1.455316-17.109167 2.184467-.423346 1.151502-.848685 2.304996-1.274023 3.458491.121525 1.637603.244046 3.276202.364575 4.913805.545868.971206 1.092732 1.941416 1.6386 2.912623.849681.424342 1.698365.849681 2.548046 1.274023.668389.059766 1.334786.121525 2.002179.181292"/><path d="m184.695533 100.685696c-8.576498 2.475331-8.509759 3.157666-11.041868 11.666429 3.342942-5.364047 5.818273-8.071471 11.041868-11.666429"/><path d="m241.719782 37.0154086c-1.524047.704249-3.009245 1.042926-3.961525 2.4374786-2.051985 3.0022723-3.810117 5.5274085-7.202864 7.6341789-1.709323 1.0618522-3.47642 1.7491674-5.288342 2.3149572-1.503129.4671751-2.4066.0488094-3.685604.9692141.759035.1314863 1.518071.2649649 2.277106.3974474h5.020389c2.062941-1.2740233 4.125883-2.5480467 6.188825-3.8210739 1.214256-1.2750195 2.427517-2.5490428 3.640778-3.8230662 1.003081-2.0360466 2.007159-4.0740856 3.011237-6.1091361"/><path d="m105.10842 56.0470661c-3.373821 9.2329339-6.3223033 17.1470195-11.4323422 25.5053697 6.5484202-7.0564358 10.5189102-13.0540078 14.2702572-21.0318444 1.457307-3.0988949 1.732233-6.7356887 5.791377-5.3839688.182288 3.0959066.836732 6.1888249 1.018023 9.2827393 2.193432-15.7185993 8.377277-22.2929183 22.752125-28.3940856-4.065121.4861011-8.130241.9712062-12.194366 1.4563112-3.823066.849681-7.645136 1.6993619-11.468202 2.5480467-1.880654 2.7303347-3.762304 5.4616654-5.641961 8.1910039-1.031969 2.6088094-2.062942 5.2176187-3.094911 7.826428"/><path d="m132.956638 55.6834864c3.100887 14.5900078 7.564451 28.5933074 9.50288 43.4154085 1.259081 9.6313771 1.396544 14.2583031-3.44853 22.5678441-5.296311-.342661-8.584467.254008-13.707455 1.933448-20.392342 6.684887-32.0886536 16.51449-45.8299766-3.291144 4.3868638 2.066926 8.7737276 4.133852 13.1605915 6.201774 3.126786-.614599 6.2535719-1.228202 9.3803581-1.844794 5.521432-3.214443 11.042864-6.430879 16.564296-9.645323 4.307175-.849681 8.615346-1.699361 12.922521-2.549042 1.395549-5.823253 2.791097-11.648498 4.186646-17.4727475-1.031969-7.7058988-2.063938-15.4108016-3.094911-23.1167004-.120529-3.6397821-.242054-7.2795642-.363579-10.9203424.24305-1.7601245.486101-3.5192529.727159-5.2783813"/><path d="m168.086412 145.962833c-1.713307 11.853696 3.944592 18.225805 1.601744 21.500015-.663409.926382-1.561899 2.544063-2.564981 2.988327-3.584996 1.582817-8.513743-.29684-8.86537.629541h-11.830786c-1.577836-.667393-3.154677-1.334786-4.732513-2.002179 2.426521-2.85186 4.853043-5.70372 7.28056-8.554584 2.365759-5.15586 4.732514-10.313712 7.098273-15.471564 1.517073-5.217619 3.034147-10.435237 4.550225-15.652856h2.366755c1.698366 5.521432 3.397728 11.041868 5.096093 16.5633"/><path d="m148.201089 111.502444c.961246 5.381976 2.630724 6.66098 5.161837 11.87063-1.685416 8.499798-4.391844 18.607315-7.650117 26.107019-1.373634 3.162646-2.482303 4.906833-4.905836 7.351284-4.089027 4.129868-8.22288 7.725821-12.860763 11.305837-3.338957 2.572949-5.668856 1.282988-9.787766.699268-1.752156 3.175596-2.235269 4.939705-5.459674 6.552405-4.95863 2.478319-9.395299-2.862817-13.288093-6.006537 2.810023 4.388856 5.620047 8.776716 8.428078 13.165572 1.942412 1.820887 3.883829 3.638786 5.825245 5.459673 1.637603.242055 3.276202.486101 4.914802.729152 2.18347-1.334786 4.367937-2.670568 6.551408-4.005354 1.153494-2.183471 2.305992-4.367938 3.45849-6.551409 2.427518-1.820887 4.855035-3.640778 7.280561-5.461665 2.973385-2.547051 5.94677-5.096093 8.919159-7.64414 1.88165-2.669572 3.761308-5.338148 5.642957-8.008716 1.698366-3.154677 3.396732-6.309354 5.095098-9.464031 2.185463-6.552405 4.368934-13.105806 6.554397-19.657214.181291-2.48828.362583-4.975564.544871-7.463844-2.730334-1.212265-5.459673-2.427518-8.191004-3.640779-2.002179-1.879657-4.231471-3.456498-6.23365-5.337151"/><path d="m82.9031595 149.421323c9.1861168 0 18.8882175-.510008 27.3023505-4.368934 2.3807-3.57105 4.731517-6.488654 7.64414-9.645323-2.650646 5.00744-3.482397 7.838381-4.18565 13.468389-.910444 1.334786-1.819891 2.668576-2.730335 4.004358-6.91698.181292-13.8329646.36358-20.7499452.545868-2.2452295-.244047-4.489463-.486101-6.7346926-.728156-.2430505-.244046-.485105-.486101-.7281556-.728155.0617588-.849681.1225214-1.699362.1822879-2.548047"/><path d="m81.6291362 143.051206c-.2370739-2.153587-.475144-4.308171-.713214-6.463751-1.5688716 9.447098-1.1923424 15.779362-5.540358 24.242304-3.2473152 3.762303-7.2466926 7.18593-11.8268016 9.01877.3874864 2.319938.5030351 3.771269.2779144 5.471627-.8068482 6.119097-13.047035 3.415657-18.0823657 3.171611 8.0794397 2.080871 16.1568871 4.159751 24.2353307 6.239626 1.8208872-.728156 3.6397821-1.455315 5.4606693-2.183471.6076264-3.518257 1.2142568-7.038506 1.8208871-10.556762 1.6983658-3.154678 3.3977277-6.311347 5.0960934-9.464032.3028171-1.943408.6066304-3.882832.9104436-5.825245-.5468638-4.550225-1.0917354-9.100451-1.6385992-13.650677"/><path d="m67.977463 89.7205292c-.2530116 4.5940545-.5498521 6.5085759 1.4752374 10.5657278 2.5749416 5.15586 5.7375875 10.00193 8.5356576 15.098023.3038132-3.398724.6066303-6.795455.9104436-10.193183-3.6397821-5.157852-7.2805604-10.3137118-10.9213386-15.4705678"/><path d="m30.6144125 124.420981c-.7889183 1.676451-1.5758444 3.353898-2.3647627 5.031346 2.1685292 7.304467 4.0969961 11.931393 8.2258677 18.312467-.7191907 2.584902-1.2570895 3.716482-2.9116264 5.823253-3.6338055-.557821-6.8611985-.720187-10.5438133-.708234 4.0651206 3.153681 8.1302413 6.31035 12.1953619 9.465027 2.0011829-.365572 4.004358-.729151 6.006537-1.092731 2.0011828-2.002179 4.0043579-4.004358 6.0065369-6.006537-2.8518599-4.429697-5.7037198-8.857401-8.5545836-13.287097-2.687502-5.845168-5.3740078-11.692327-8.0595175-17.537494"/><path d="m241.745681 34.5988482c2.476327 11.1374942 5.669852 21.4163425 5.373012 32.8237822-.36358 13.9953307-3.090926 31.6742723-16.058273 40.1133076-14.522272 9.452078-31.569681 4.981541-47.503439.931362 6.492638 2.670568 12.985276 5.339144 19.475922 8.008716 6.067299.303813 12.134599.607626 18.201899.909447 4.125883-1.212265 8.251766-2.425525 12.376653-3.638786 3.21544-2.670568 6.431876-5.339144 9.647315-8.009712 2.426522-5.096093 4.853043-10.1921868 7.280561-15.2882802.910443-5.8860078 1.819891-11.7710194 2.729338-17.6560311-.727159-5.7644825-1.456311-11.5279689-2.183471-17.2914553-1.334786-5.7027237-2.670568-11.4064435-4.004358-17.1091673-1.778054-1.2650583-3.556108-2.5291206-5.335159-3.7931829"/><path d="m25.0282335 67.7951751c-6.5922491 4.2912374-9.1821323 6.1748794-8.4589572 14.1278132.6564358 2.3816965 1.3138677 4.763393 1.9703035 7.1450895.9313618.630537 1.8617276 1.2600778 2.7920934 1.8896187 1.1505058.3835019 2.3000155.7660078 3.4505214 1.1495097 2.0808715-.4920778 4.1617431-.9851517 6.2416186-1.4782257 1.0688249-3.3130583 2.1366537-6.6251206 3.2034864-9.9381789-2.9564514 1.4513307-5.9138988 2.9026614-8.8703502 4.3539922h-2.0529805c-.7660078-1.1774008-1.5330117-2.3548016-2.3000156-3.5322024.9313619-1.3696498 1.8617276-2.7373074 2.7930895-4.1069572.4930739-2.6008404.9851518-5.2016809 1.4782257-7.8025214.6295408.191253 1.2590817.383502 1.8886226.5737588.7670038.603642 1.5330116 1.2062879 2.3000155 1.8069416-.109572-1.3676576-.219144-2.7373074-.3287159-4.1059611-.5199689-.8755797-1.0409339-1.7521556-1.5609028-2.6277354-.5199688-.439284-1.0399377-.8765758-1.5599066-1.3148638-.3287159 1.2869728-.6574319 2.5739455-.9861478 3.8599222"/><path d="m172.938459 5.12996109c5.851144 5.43377431 13.032094 10.15632681 17.712809 16.79638911 1.810927 2.5699611 3.823067 3.8848249-.030879 7.515642 4.072093-1.1634552 5.585183-1.0369494 8.845448-.6424903 5.929836.7181946 11.488124 9.1482646 11.841743 15.1886693-.069728.5647938-1.646568 1.8477821-6.231658 3.1138366-.090646.1763113-2.587891-.3416654-2.526132-.1723269.477136 1.3029105 1.11365 1.5031284 2.085852 2.1127471.211175 1.4503346.346646 3.6865992 1.334786 5.2724047 2.884732-.0517977 5.704716.2629727 8.529681.8217899.950288 1.5778365.807844 3.154677.728156 4.7325136 1.091735-.1812918 2.18347-.3635798 3.276202-.5448716-.302817-2.4882802-.60663-4.9755642-.909448-7.4628483.970211-1.6385992 1.940421-3.2771984 2.911627-4.9138054-1.395549-3.1566693-2.791097-6.3103502-4.186646-9.4660234-2.668576-2.5480466-5.338148-5.0960933-8.008716-7.64414-.256-.0129494-.514988-.0258989-.769992-.0388483-3.003269-1.8428015-6.004545-3.684607-9.006817-5.5274085-4.896872-4.0063502-9.792747-8.0117043-14.689619-12.0180545-3.635798-2.37472375-7.270599-4.74845138-10.906397-7.12317511"/><path d="m182.794957 49.9767782c-.308794.5398911-.774973 1.4025214-1.371642 2.0001868 2.436483 2.3049961 3.638786 3.848965 4.508389 7.1092296-2.755237 1.3676575-5.510474 2.7363112-8.264716 4.1029727-2.331891 2.2352685-4.663782 4.470537-6.993681 6.7048094-3.069011-1.6515487-3.833027-2.9195954-5.318225-6.0692919-1.729245.4582101-3.366849.8984903-4.795269.374537.906459.0069728 1.462288-.219144 2.367751-.7789572 1.483206-1.5409806 2.967409-3.0819611 4.450615-4.6229416 2.619767-1.9842491 5.240529-3.9694942 7.860296-5.9537432 1.715299-.5588172 3.429603-1.1176343 5.144902-1.6764514.654444-.2689494 1.756141-.9204047 2.41158-1.1903502"/><path d="m190.399253 58.1986615c-8.764763 4.7195642-17.159969 9.4660233-21.641463 18.4290117 0-11.3765604 11.423377-16.3849962 21.641463-18.4290117"/><path d="m167.017588 35.8180856c-6.508576 4.4376654-11.1106 13.3936809-10.532856 22.1215876-2.11972-7.5574786-1.368654-14.6985837 5.140918-19.9181946 1.098708-.5339144 2.19642-1.0688249 3.295128-1.6017432.699269-.2002179 1.397541-.4004358 2.09681-.6016498"/></g><path d="m254.605447 56.4235953c-1.181385-7.442926-3.137743-14.6677042-5.853136-19.8624124-.330708-.6355175-.832747-1.2790039-1.454319-1.8936031-1.348731-1.3298055-3.34593-2.5888872-5.408871-3.2981168-2.18646-.7520622-4.491456-.905463-6.321308.0508016-.475144.2490272-.91642.5697743-1.309883.969214-1.18537 1.2013074-2.184467 2.6596109-3.185556 4.1218988-1.11365 1.6276421-2.233277 3.263253-3.573043 4.406786-1.552934 1.3278133-3.496343 2.1336654-5.329183 2.8697899-.80386-1.9434086-1.728249-3.721463-2.773167-5.3909416-1.253106-1.9981946-2.679534-3.8688872-4.249401-5.7405759-1.282989-1.527035-2.531113-2.6745525-3.881837-3.702537-1.353712-1.0329649-2.739299-1.9025681-4.353992-2.9126225-4.327097-2.7104125-8.011704-5.9417899-11.770023-9.2399067-1.707331-1.4981478-3.432592-3.0102412-5.12-4.4018054-8.949043-7.37917509-17.297432-10.95819455-26.225557-11.52-8.867362-.55782101-18.230786 1.87866148-29.285603 6.53248249-5.335159 2.24522957-9.297681 4.89886381-12.749198 8.08940081-3.297121 3.0510817-6.096187 6.5623657-9.173168 10.6633463-1.791004.1275019-3.375813.3924669-4.995486 1.0409338-1.784031.713214-3.580016 1.8687004-5.731611 3.7682802-1.527035 1.3457432-2.9883268 2.7014475-4.4008093 4.0671128-1.3228327 1.2790039-2.6068171 2.5809183-3.8728716 3.8967782-10.0646848 1.6166849-18.2646537 3.4017121-25.6079688 6.2465993-7.5096654 2.9086381-14.1298055 6.9110038-20.9292452 12.9404513-2.7781478 2.4623813-5.1827548 5.065214-7.2875331 7.8224436-2.0679221 2.7084202-3.8380077 5.5562957-5.3909416 8.5595642-1.3606848 1.5051206-2.7223658 3.0241868-4.1976031 4.3529961-1.4383813 1.2949416-2.971393 2.3856809-4.6886848 3.0470973l.0009961.0009961c-.9990973.384498-1.4124825.6096187-1.4573074.594677-.0498055-.027891-.0776965-.1773074-.1484202-.4532295 2.4673618-2.3548016 2.8548482-5.8132919 3.0829572-9.2478755.2958443.3546148.5807315.7909105.8755797 1.2461323.3257276.503035.6594241 1.0220078 1.0598599 1.527035l1.6744592 2.1127471.5887004-2.6357043c.49407-2.2083735.8636264-5.1498833.2878755-7.6999222-.3725448-1.654537-1.1405448-3.1297743-2.4783191-4.1746926.128498-.3346926.2490272-.6424903.3685603-.9463035.420358-1.0748016.8526693-2.1774942 1.2202335-3.2194241l.7251673-2.06593-2.1595642.374537c-2.8737743.4990506-9.0506459 3.8937899-13.3996576 8.4071595-1.6156887 1.6764514-3.0042646 3.529214-3.9157043 5.4736187-.9482957 2.0230973-1.3726381 4.1398288-1.0050739 6.2585525.3207471 1.8517666 1.2471284 3.6686693 2.9305525 5.3839689.3068016 1.2361712.5896965 2.3089805.8925136 3.2771984.3466459 1.1016965.7201868 2.0868483 1.1873619 3.0560623 1.2660545 2.6327159 3.2841712 4.2404358 5.6190506 4.9905058 1.8776654.6026459 3.9535564.6325292 5.9896031.1872685-.3974475 2.3010117-.6484669 4.7066148-.7460856 7.33435-.1284981 3.43558-.0029883 7.230755.3755331 11.634553.082677.966225.2071906 2.03007.3685603 3.185556.1394552.986148.3058054 1.954366.485105 2.915611-.3805136 1.037946-.7630194 2.077883-1.1445291 3.115829-.5926849 1.611704-1.1853697 3.225401-1.7770584 4.837105-1.3039066 1.291953-2.6078132 2.583907-3.9107237 3.874864-1.2162491 1.202303-2.4334942 2.408591-3.6497432 3.613883-.100607.100607-.5110039.49407-.8825526.852669-2.4653696 2.371736-2.953463 2.842895-2.2531984 7.017588.4273307 2.558008 1.2690428 5.149883 2.5829105 7.64912 1.2102724 2.304997 2.83393 4.54923 4.9177899 6.639067 2.6008404 2.606817 6.8621945 5.844171 11.3237665 7.539548 2.5500389.969214 5.1787704 1.442366 7.6451362 1.046911-.1255097.379517-.2480311.758039-.3864903 1.140544-.3884825 1.07281-.8217899 2.146615-1.3009183 3.19751-3.0261789 6.635082.0806849 10.099549 4.9167938 12.304934 2.4145681 1.1007 5.2853541 1.847782 7.9529339 2.544062.5458677.140452 1.0917354.283891 1.7790506.469168 3.1616498.854661 8.622319 2.423533 13.6098365 2.738303 5.4437354.344654 10.3535564-.778957 11.6694164-5.665868.5209649-1.936435.8237821-3.420638.9463035-4.872965.1135564-1.347735.0697276-2.710412-.0876576-4.395828 1.5519377-3.439565 2.2103657-4.406786 3.3449338-6.066304.2221323-.32772.4910817-.720187.5717666-.843704 1.2172451-1.802957 1.7870194-3.082957 1.9942101-4.524327.1992218-1.390568.0308794-2.776156-.2211362-4.894879-.0239066-.201214-.0607626-.495067-.1125603-.883549 3.1865525.408405 6.3282801.627549 9.4520778.647471 1.5858055.009961 3.1706148-.036856 4.7554241-.120529-.4044202.208186-.8018677.413385-1.2361712.636513-.192249.098615-.3904747.201214-.5896965.303813-4.2035797 2.161557-4.3788949 6.256561-3.063035 10.469106 1.1863658 3.799159 3.6278288 7.678007 5.1598444 10.037789 3.2204198 4.962615 6.2934168 9.163207 10.0188638 11.446288 3.905743 2.39365 8.367315 2.675549 14.126817-.441276 2.929557-1.586801 3.853946-3.203486 5.098086-5.382973.380513-.6654.800871-1.390568 1.268046-2.105774 1.211269-.801868 4.223502-3.286163 7.18095-5.731611 1.00607-.831751 2.01214-1.660514 3.147704-2.584903.781946.574755 1.726257.974195 2.866802 1.246133 1.48221.354614 3.247315.514988 5.362054.666397 1.582817.116544 6.744654.11256 10.079627.111564 1.029976 0 1.885634 0 2.39863.002988 3.442552.020918 6.221696-.160373 8.321494-1.349728 2.238257-1.269042 3.565074-3.516264 3.854942-7.546521.126506-1.790008.149416-2.893696-.098615-4.021292-.232093-1.055875-.685323-2.01214-1.463284-3.412669-.046817-1.741198-.093634-3.483393-.139455-5.224591-.04881-1.847783-.099611-3.696561-.148421-5.543347-.05877-2.17849-.298832-3.94758-.741105-5.688778-.438288-1.729245-1.063844-3.392747-1.901572-5.387953-.567782-1.349728-1.027984-2.589884-1.478225-3.806133l-1.20828.442273.186272-.068732 1.022008-.373541v-.00498c-.720187-1.942413-1.430413-3.833027-2.424529-5.856125.064747-.390474.129494-.809836.192249-1.258085.639501.617587 1.28 1.234179 1.919501 1.849774l2.829946 2.727346c2.158568 2.07888 4.13186 3.969495 6.449805 5.336156 2.396639 1.414475 5.092109 2.235269 8.582475 2.069914 3.653728-.172326 7.563455-1.711315 10.78288-4.086038 3.113836-2.29902 5.613073-5.398911 6.656-8.82951.301821-.992125.603642-1.985245.90347-2.976374.240063-.79091.481121-1.583813.722179-2.37572 5.123985.868607 10.623502 1.148514 15.935751.592685 5.125977-.538895 10.078631-1.843797 14.34895-4.121899 6.278474-3.349914 10.985089-8.284638 14.367875-14.143751l.001992.000997c3.780234-6.5484207 5.896965-14.2642806 6.701821-22.2042651.644483-6.3681245.292856-15.0253074-1.032965-23.3746926zm-66.387673 53.5179457c-2.952467-.993121-5.005447-2.443455-7.600311-4.07807.706241 3.182568 1.027984 6.54842.087658 9.726008-1.492172 5.041307-3.901759 13.289089 2.942505 14.811144 2.605821.578739 3.787207.495066 7.464841-1.402522-2.976374.674366-4.47751.509012-6.523518.129494-1.853758-.340669-2.836918-1.51807-3.354895-2.906646.647471.467176 1.704343.721183 3.509292 1.156483 5.074179 1.223222 9.909292-1.220234 10.855596-4.73849.550848-2.055969.457214-3.135751 1.625649-5.937806 1.049899.324732 2.135658.61958 3.249308.889525-.628545 2.048997-1.25709 4.099985-1.885634 6.148981-1.630631 5.320218-7.98481 9.609463-13.594895 9.511844-5.18674-.091642-8.474895-3.339953-12.055907-6.525509-2.466366-2.196421-4.840093-4.295222-7.192903-6.375098-6.454786-2.037042-11.628576-4.416747-17.619175-8.851424 4.263347 5.009432 7.155051 7.783596 13.100825 10.276856-.864622 8.820545-3.92965 15.251424-6.54344 23.692452-1.183377 3.816093-10.520902 19.111346-13.108793 20.602521-1.844794 1.062848-13.402646 10.796825-15.576156 12.081805-1.619673 2.1506-3.041121 5.121993-5.475611 6.407969-7.418023 3.922677-12.185401-3.587984-16.176809-9.931206-1.817899-2.890708-6.8651831-11.214194-2.46537-13.546085 4.160747-2.202397 6.490646-3.777246 10.735066-6.564358.623564 1.13656 1.693385 2.234272 2.390662 3.369836-.153401-1.242148-.307798-2.483299-.463191-3.726443-.27891-2.250211-.267953-4.077074-.088654-6.34123.173323-2.19144.344654-4.383876.516981-6.576311-.638506 2.228295-1.914521 4.456591-2.552031 6.683891-.255004.891517-.466179 1.611704-.587704 2.279097-9.523798 1.946397-18.9788643 2.067922-28.5056503.36856-.6076264-3.527221-1.3477354-7.201867-1.9683113-9.836576-.1882645 2.950475-.0667393 11.107611-.082677 15.675767-.0119533 3.538179-.1603735 4.749447-1.9852451 7.760685-1.7083269 2.816996-2.431502 3.457494-4.8241557 8.218895.1992218 3.00526.2032062 4.990506-.594677 7.842366-1.3278132 4.741478-14.7204981 1.067828-18.2527004.100607-4.3510039-1.191347-13.3448716-2.960436-11.0827082-8.759783 1.9902257-5.105058 3.2522957-10.487035 4.2244981-17.629136-7.9708638-11.482148-15.3829105-27.217681-16.8053541-41.160218-1.1046848-10.824716-.4422724-17.4876884 1.9005759-24.1098207 3.7115019-10.4920155 8.905214-19.5735408 17.2376653-26.8869727 11.2390973-9.8624747 21.7460545-13.8230039 38.1967938-16.3272218-3.9565447 4.4287004-7.8702568 9.1114085-12.1365914 14.1327938-4.3181323 5.0831439-6.884109 10.2170894-9.6263969 15.7773696-3.7882024 7.6790039-3.7065214 10.6015876 1.3148638 17.3432529 4.3270973 5.8103035 6.6629728 8.4250899 8.5525914 14.1108789-1.5599066 3.21544-2.1276887 5.933822-2.651642 10.325666 5.2983035 5.792373 9.2359222 9.760871 14.3808249 10.983097 5.046288 1.199315 9.2598288.967222 13.7751902-1.339766 10.026833-5.126973 19.304592-11.747113 30.616405-12.020047 5.23256-12.864747 4.703627-23.6147549 2.19144-36.0621324-1.716296-8.5007938-2.404607-16.5493541-2.937525-25.2155019-2.121713 8.9251362-2.520156 16.7734786-.946304 25.6637509 1.897588 10.7131518 3.372825 22.5509104-1.905556 31.9661324-10.228047.782942-18.993806 7.005634-28.211798 11.779984-3.7055253 1.919502-7.5634553 2.106771-11.6644358.981168-3.8071284-1.045915-6.3760934-3.565074-10.477074-8.2946-.0647471-4.749447 1.0070662-6.940887 3.1875487-11.242085 3.5043112-6.9070196 7.3712062-13.3359067 11.6156264-20.131362-5.1967004 6.2724981-10.1204669 11.5130272-14.2104902 17.819393-1.5638911-4.4536031-3.7991596-6.7157665-7.5026927-11.7311751-3.6168716-4.8988638-3.995393-7.0434864-1.2909572-12.7133385 2.7193775-5.6967471 5.0253697-10.7041868 9.654288-15.7016654 7.9977587-8.6372607 15.3241401-18.2487159 24.0699768-26.7554864 4.749447-4.6179611 6.677914-4.4585836 12.976311-5.412856 5.693759-.8636265 11.252047-1.9523735 17.058366-3.3011051-5.615066.5229572-11.042864.7152063-16.510506.8506771-.056778.0019922-.11256.0039844-.169338.0049805 5.378988-6.8691673 8.500793-10.697214 17.235673-14.4933852 21.507984-9.34051361 35.173603-10.35056808 52.068607 3.8509572 4.378895 3.6816187 8.202957 7.2546615 12.642614 10.4302568-1.609712.1374631-2.997291.4263346-4.832124 1.1465214 2.233276-.4253385 4.812202-.0039844 7.130148.420358.650459.4223502 1.318848.8337432 2.003175 1.2371673 3.134755 1.846786 4.913805 2.8668016 7.033525 5.8202646 2.240249 3.1208093 4.107954 6.2396265 5.753525 9.6771984-1.078786-.3854941-1.983252-.7112217-2.789105-.9502879-.593681-.2729338-1.239159-.4512373-1.923486-.5179766-1.355704-.1304903-2.652638.2032062-3.733416.868607-.043829.0199221-.086662.0398443-.130491.0607626-1.734225.8437043-4.419735 1.8059455-6.216716 2.0978055.916421.3167626 2.944499.4352996 3.900763.0567782.127502-.0508016.257992-.0896498.391471-.1215253-.431315.7341323-.712218 1.5668793-.799876 2.4683579-.114552 1.1943347.128499 2.33986.641495 3.3349728.001992.0029883.002988.0059767.00498.0109572.162366.3815097.387487.7331362.635518.987144-.820794.3028171-1.659518.6484669-2.52414 1.024 4.008342-.6106148 7.622225-.7152062 11.533945-.2002179.257992 1.2331829.517977 2.5400778.759035 3.8688871-.485105.0378522-.968218.0747082-1.453323.1135565-.037852.0029883-.078692.0069727-.117541.0109572-1.85077-1.4792218-3.912716-1.2311907-6.729712-.5877043-8.567533 1.9533696-6.554397 6.7605914-10.495004 14.0042957 4.092016-5.0024591 3.788203-10.2360156 10.457152-11.8158444 1.55393-.3675642 2.611798-.8287626 3.663689-.6703813-1.892607.9522802-3.53021 2.5311129-4.179673 4.3639533-1.830849 5.1688094-.694288 9.5237977-2.705432 14.3519378 2.491268-4.3161401 2.641681-8.5276888 4.86898-13.0689495.799876-1.6306303 3.76828-4.2414319 5.59116-4.2812762.501043-.0119533.999097-.0219144 1.50014-.0328716.439284 2.8727782.706241 5.7256342.535907 8.091393-.310786 4.3181323-1.432405 10.7270973-2.103783 13.1795175 2.256187-2.9006693 3.284172-9.0436732 4.2753-13.3687782 1.031969-4.5024125.770988-9.9063035-.132482-14.7434086-1.23916-6.6370739 5.59614-5.5572918 9.564638-8.6850739 2.916607-2.3000156 4.925758-5.9716732 7.600311-8.5735097 2.652638-2.5789261 6.828327 1.2112684 7.872249 3.7324202 4.524327 10.9462412 6.585276 28.1679689 5.390942 39.2028638-1.341759 12.3816343-7.322397 25.8988325-18.24274 31.9950195-13.922614 7.770646-30.337494 3.023191-44.169463-1.637603zm-19.781727 54.994179c-.454226 5.109043-2.156576 5.446724-6.643051 5.368031-2.038039-.03586-10.154335-.072716-12.214288-.250023-2.909634-.25102-4.543253-.511004-5.432778-1.174413 4.57214-3.355891 12.340794-17.212762 13.854879-21.983128 1.601744-5.039315 3.354895-9.438133 4.658802-14.095938.599657 1.946397 1.073805 3.87586 1.946397 5.943782 1.457307 3.455502 2.169525 5.59116 2.274117 9.297681.109571 3.910724.22014 7.822444.330708 11.733167 1.252109 2.192436 1.447346 2.660607 1.225214 5.160841zm-137.5935256-38.701821c2.9036576 10.04277 7.8493385 19.912218 13.3329183 28.208809 0 .047813-.0009961.095627-.0009961.145432-.3446537 1.426428-.7411051 2.815004-1.5748483 3.930646-3.9186926 5.243518-13.8877509-2.453416-16.7734786-5.397914-3.1536809-3.221417-5.2654319-7.034522-5.7684669-10.612545-.365572-2.608809-.0099611-2.67256 1.80993-4.51835 2.4534163-2.484296 4.909821-4.969588 7.3622412-7.452888.5369027-1.434396 1.0748016-2.869789 1.6127004-4.30319zm-5.5443424-63.1602803c-.7440934 1.5977587-1.2720311 2.8080311-1.6316265 4.0541634-1.5628949 5.3979144.7072374 10.2160934-4.1936186 14.1288093 2.3030038 4.6468483 2.1974163 6.4996109 7.5544902 4.3529961 2.06593-.8287626 3.7702724-1.9902256 5.2913308-3.3638599-.7251674 1.8746771-1.3975409 3.8091206-2.0310662 5.8063191-.1055875.3307082-.2061945.6634086-.3038132.9931206-3.831035 1.6256498-8.8693541 2.6586148-10.797821-1.3676576-.9363424-1.9543657-1.4652763-3.8728716-2.1476109-6.3422257-6.3093541-6.5364669 3.1218054-15.1667548 8.2597354-18.2616653zm3.1008871 6.9239533c-.7789572-.7789572-1.4025214-1.306895-2.4085914-1.1923424.0846693-.6604203.1972296-1.2969339.356607-1.8955954.0806848-.3077976.1663502-.6096186.2579922-.9124358 1.3058989.7610273 1.6505526 2.1396421 1.7939922 4.0003736zm189.1780229-24.4136343c.238071.502039.472156 1.0130428.702257 1.5300234-.190257.1394552-.371548.2868794-.540887.4422724-.310786-.7271596-.762023-1.3865837-1.32084-1.9384281.376529-.0139455.762023-.0258988 1.15947-.0338677zm-182.1444976 29.6691051-.0009961-.0009961zm-20.5357821 6.9388949h.0009961zm69.0353308 72.1690893h.0019922zm56.8628789 16.975689h-.000996zm23.110724-43.926412h.000996l-.000996.000996zm-137.9571049-44.2999538v-.0009961l-.0009961.0009961-.0418366-.1115642zm221.8543809 18.2377588.029884.01793z"/><path d="m3.68759533 81.5384903c1.00407782-11.3675954 3.21444358-16.2754242 11.29089497-24.8310039-10.13042804 7.1391128-12.65855256 10.3834397-11.29089497 24.8310039"/><path d="m1.07480156 72.2527626c1.11564202-5.1160155 2.15557976-7.0464747 5.3092607-11.24607-5.11701168 3.575035-5.78440467 5.0432996-5.3092607 11.24607"/><path d="m119.924545.9343502c-6.068296 1.46228793-7.225775 2.58490272-9.045666 8.53366536 2.903658-4.35598443 4.576125-5.77344747 9.045666-8.53366536"/><path d="m129.49516.06773541c-12.036981 2.95047471-15.574164 5.04828015-19.572545 18.99878599 5.082148-10.21708949 8.931113-13.979393 19.572545-18.99878599"/><path d="m155.418895 50.9240778c1.282988-5.6837976 3.563082-11.1614008 12.390599-15.3988482-11.701292 2.9305525-13.894724 7.8443579-12.390599 15.3988482"/><path d="m229.867082 51.3165447c6.928934-2.4703501 10.268887-8.0405914 11.928404-14.5949883-2.712404 5.4935409-6.897058 10.0875954-12.582848 12.9016031-3.051082 1.5091051-4.999471.9831596-8.406163.6604203 3.464467.9941167 5.658895 2.2452295 9.060607 1.0329649"/><path d="m182.665463 56.886786c-.923393-1.9354397-2.541074-3.3220234-4.413759-4.0083424 1.699362-.9074553 3.368841-1.8607315 4.671751-3.0451051-3.815097 1.7661012-8.256747 1.334786-11.529961 3.5461479-2.883735 1.947393-6.86319 8.119284-9.793743 10.7360622 2.122708-.8237821 4.16772-2.2482179 6.04937-3.7503502.007968 1.1166382.253011 2.2472218.764015 3.3190351.76302 1.5977587 1.997199 2.8199844 3.45849 3.584-1.054879 1.3895719-1.930459 2.9454941-2.557011 4.6707548 5.579206-6.6121712 13.668607-11.6056653 21.273899-13.7413229-2.125697-.0298833-4.642864.3675642-7.206849 1.2102723-.093634-.8526692-.326723-1.7043424-.716202-2.5211517"/><path d="m174.637821 106.848623c-.270942 1.712311-.64249 3.84-.913432 5.553307.724171-1.938428 1.596763-4.19063 2.439471-6.038412.894506-1.955362 1.397541-2.139643 3.294132-3.171611 1.344747-.73214 3.787206-1.738211 5.131954-2.470351-1.383596.23309-3.863907.742102-5.247502.975191-3.696561.62456-4.13186 1.512093-4.704623 5.151876"/><path d="m111.499455 40.7458366c-4.290241 4.2404358-8.455969 18.7905992-9.787766 24.6118599 2.097805-4.836109 7.345307-18.3632685 11.371579-21.8048249 1.111658-.9512841 1.888623-1.5350039 2.723362-1.9593463-2.881743 4.8321245-2.670568 6.034428-1.658521 12.5091362.858646-6.582288 3.134755-9.1253541 6.870163-14.0361712 4.094008-1.0279845 7.926039-2.258179 12.125635-3.8967782-4.736498.5359066-9.466024 1.0259922-14.204514 1.4742412-3.978459.3775253-4.618957.3127782-7.439938 3.1018833"/><path d="m169.939175 65.5140856c-.781945-1.6356109-.082677-3.6059144 1.556918-4.3858677 1.639596-.7809494 3.613884-.0836732 4.395829 1.5529339.074708.1553929.133479.3147704.182288.4741478-1.565883 1.1624592-3.001276 2.5311129-4.205572 4.1169183-.809836-.3257276-1.528031-.9184125-1.929463-1.7581323" fill="#ffc"/><path d="m206.573074 51.3424436c.131486-1.3557043 1.286973-2.3548016 2.641681-2.2233152 1.353712.1314864 2.354801 1.3417588 2.224311 2.6964669-.028887.2888716-.106584.5588172-.223128.8078444-1.240156.2121712-2.480312.5747549-3.758319 1.0449183-.533915-.5468638-.959253-1.544965-.884545-2.3259144" fill="#ffc"/></svg>