<svg height="234" preserveAspectRatio="xMidYMid" viewBox="0 0 512 234" width="512" xmlns="http://www.w3.org/2000/svg"><g fill="#1a1919"><path d="m49.7634813 20.9795905c-2.582576-2.5926054-6.1655868-4.1897907-10.1598038-4.1897907-3.9841876 0-7.5396175 1.5971853-10.0895979 4.1897907h-.0651912c-2.5750539 2.575054-4.1722393 6.1680942-4.1722393 10.1372377 0 3.9917096 1.5971854 7.5621836 4.1722393 10.112164l.0651912.070206c2.5499804 2.5700392 6.1054103 4.1446583 10.0895979 4.1446583 3.994217 0 7.5772278-1.5746191 10.1598038-4.1446583l.0300882-.070206c2.5850834-2.5499804 4.1622099-6.1204544 4.1622099-10.112164 0-3.9691435-1.5771265-7.5621837-4.1622099-10.1372377zm-10.1598038 196.1253345c3.994217 0 7.5772278-1.627274 10.1598038-4.17224l.0300882-.07522c2.5850834-2.539951 4.1622099-6.132991 4.1622099-10.082076 0-3.99171-1.5771265-7.567198-4.1622099-10.154789h-.0300882c-2.582576-2.617679-6.1655868-4.19982-10.1598038-4.19982-3.9841876 0-7.5396175 1.582141-10.0895979 4.19982h-.0651912c-2.5750539 2.587591-4.1722393 6.163079-4.1722393 10.154789 0 3.949085 1.5971854 7.542125 4.1722393 10.082076l.0651912.07522c2.5499804 2.544966 6.1054103 4.17224 10.0895979 4.17224zm78.0614935-43.409843c3.547908-.932736 6.75983-3.209415 8.723089-6.654521l.263273-.503979c1.745119-3.262069 2.063553-7.033131 1.130817-10.380451-.940258-3.572981-3.242011-6.742278-6.679595-8.715567l-.203096-.135397c-3.349826-1.840399-7.161006-2.241576-10.666289-1.286273-3.562952.890111-6.764845 3.262069-8.715567 6.677087-1.9757963 3.394959-2.3870026 7.296404-1.44173 10.886937.975362 3.532863 3.259562 6.724727 6.677088 8.720582h.020058c3.425048 1.968274 7.296404 2.321811 10.891952 1.391582zm-63.3658839-71.429539c-3.761033-3.7510035-8.9512586-6.1029028-14.6956096-6.1029028-5.736829 0-10.9120104 2.3518993-14.6655214 6.1029028-3.7409741 3.745989-6.047741 8.913648-6.047741 14.657999s2.3067669 10.934577 6.047741 14.723191c3.753511 3.728437 8.9286924 6.05777 14.6655214 6.05777 5.744351 0 10.9345766-2.329333 14.6956096-6.05777 3.7510036-3.788614 6.0577705-8.97884 6.0577705-14.723191s-2.3067669-10.91201-6.0577705-14.657999zm-8.2642432-24.4191335c8.3394638 1.3740307 15.8264269 5.3682478 21.5507191 11.1326577h.042625c.91017.9076626 1.7952664 1.9080974 2.6201863 2.9060248l14.3044622-8.2742726c-1.9231415-5.8120497-2.0134063-11.8873716-.4663681-17.5865903 2.0384799-7.6298823 6.985492-14.4599182 14.4022491-18.7399738l.2407061-.1529486c7.3365214-4.1496731 15.6734784-5.0147107 23.1980514-2.9762308 7.62236 2.0434946 14.497529 7.0130729 18.777584 14.4172931v.0225662c4.259997 7.3641027 5.122527 15.8138901 3.091569 23.4212062-2.02845 7.6273749-6.993014 14.5050506-14.402249 18.7600326l-1.95323 1.153383h-.198081c-6.852602 3.26207-14.387204 3.77357-21.307505 1.950723-5.681667-1.504413-10.8919518-4.6787251-14.9739263-9.179428l-14.2844033 8.251706c1.6423178 4.34274 2.5499804 9.023972 2.5499804 13.970984 0 4.921939-.9076626 9.67087-2.5499804 14.036175l14.2844033 8.229141c4.0819745-4.570909 9.2922593-7.672508 14.9739263-9.181936 7.624867-2.083612 16.074655-1.198515 23.458816 3.106614l.47389.220647v.022566c7.133426 4.325188 11.922475 10.999768 13.928359 18.539386 2.030958 7.562183 1.168428 16.016985-3.091569 23.396132l-.258257.514008-.030089-.042625c-4.277548 7.113367-11.022334 11.932504-18.466672 13.970984-7.634897 2.013406-16.087192 1.153383-23.4613235-3.089062v-.057669c-7.4167571-4.287578-12.3637692-11.132658-14.4022491-18.747496-1.5470382-5.674145-1.4567734-11.749467.4663681-17.559009l-14.3044622-8.254214c-.8249199.997927-1.7100163 1.95323-2.6201863 2.860892l-.042625.045133c-5.7242922 5.744351-13.2112553 9.736061-21.5507191 11.064959v16.528486c5.9424321 1.241141 11.2630402 4.212357 15.4302647 8.382089l.0225662.042625c5.5863877 5.561314 9.0465381 13.309042 9.0465381 21.824021 0 8.489905-3.4601504 16.192501-9.0465381 21.781396l-.0225662.087757c-5.6265053 5.586388-13.3441451 9.046538-21.8616311 9.046538-8.4723537 0-16.2100522-3.46015-21.8240208-9.046538h-.0225662v-.087757c-5.5914024-5.588895-9.05907485-13.291491-9.05907485-21.781396 0-8.514979 3.46767245-16.262707 9.05907485-21.824021v-.042625h.0225662c4.1647172-4.169732 9.4953546-7.140948 15.4152205-8.382089v-16.528486c-8.3369564-1.328898-15.8113827-5.320608-21.5256455-11.064959l-.0601765-.045133c-7.13593329-7.161006-11.60404049-17.029957-11.60404049-27.964534 0-10.91201 4.4681072-20.7809607 11.60404049-27.9444748h.0601765c5.7142628-5.7644099 13.1886891-9.758627 21.5256455-11.1326577v-16.4582804c-5.9198659-1.2837659-11.2505033-4.254982-15.4152205-8.4021477h-.0225662v-.0451324c-5.5914024-5.6114613-9.05907485-13.3065348-9.05907485-21.8240208 0-8.4723537 3.46767245-16.2351258 9.05907485-21.82402085l.0225662-.0225662c5.6139686-5.60895388 13.3516671-9.06659688 21.8240208-9.06659688 8.517486 0 16.2351258 3.457643 21.8616311 9.06659688v.0225662h.0225662c5.5863877 5.58889505 9.0465381 13.35166715 9.0465381 21.82402085 0 8.517486-3.4601504 16.2125595-9.0465381 21.8240208l-.0225662.0451324c-4.1672245 4.1471657-9.4878326 7.1183818-15.4302647 8.4021477zm80.3532161-10.9772017-.12286-.1805295c-1.970781-3.3247532-5.12002-5.5412553-8.600229-6.4965577-3.595548-.9553024-7.466904-.5541255-10.91201 1.4216705h.020058c-3.437584 1.9507224-5.736829 5.1400784-6.697146 8.7155671-.9452726 3.5479078-.5340663 7.4694115 1.44173 10.8869369l.067698.0877574c1.978304 3.3723929 5.130049 5.6340274 8.647869 6.5441974 3.535371 1.0004348 7.474426.5766917 10.869385-1.3991043l.183037-.0877574c3.342305-1.9958548 5.568836-5.1450931 6.496558-8.6052435.94778-3.570474.569169-7.4719189-1.39409-10.8869369z"/><path d="m189.859453 71.7033889h15.961824v48.7229291l23.017522-25.4596863h19.138643l-27.789019 29.4965283 27.904358 37.389683h-18.276113l-23.995391-33.397973v33.397973h-15.961824zm76.659882 56.9946941c0 8.296839 5.967506 20.359725 20.344681 20.359725 8.896097 0 14.750772-4.6361 17.787179-10.711422 1.589663-2.94865 2.321811-6.100395 2.567532-9.380016.110323-3.174312-.488934-6.473991-1.837892-9.40509-2.798208-6.318535-9.008927-11.797107-18.634664-11.797107-12.907866 0-20.226836 10.465701-20.226836 20.823586zm56.533341 33.15476h-15.969346v-9.62323c-4.249968 7.782831-13.148572 11.68929-22.533603 11.68929-21.44541 0-33.989709-16.701494-33.989709-35.574357 0-21.069307 15.227169-35.4414677 33.989709-35.4414677 12.18324 0 19.612534 6.4564399 22.533603 11.8221807v-9.7586273h15.969346zm18.073017-54.577604h-8.271765v-12.3086073h8.271765v-3.7685551c0-19.8732983 15.111831-21.0718142 26.570444-21.204704v12.2860411c-4.02932 0-10.601098 0-10.601098 9.4025825v3.2846355h10.601098v12.3086073h-10.601098v54.577604h-15.969346zm37.424786-35.5718501h15.956809v48.7229291l23.022537-25.4596863h19.138643l-27.789019 29.4965283 27.899343 37.389683h-18.276113l-23.995391-33.397973v33.397973h-15.956809zm76.659882 56.9946941c0 8.296839 5.964998 20.359725 20.344681 20.359725 8.88356 0 14.738234-4.6361 17.779656-10.711422 1.594678-2.94865 2.329334-6.100395 2.57004-9.380016.110323-3.174312-.488935-6.473991-1.840399-9.40509-2.793194-6.318535-9.003913-11.797107-18.627143-11.797107-12.910373 0-20.226835 10.465701-20.226835 20.823586zm56.528326 33.15476h-15.964332v-9.62323c-4.262504 7.782831-13.153586 11.68929-22.533602 11.68929-21.44541 0-33.97968-16.701494-33.97968-35.574357 0-21.069307 15.222155-35.4414677 33.97968-35.4414677 12.175717 0 19.612533 6.4564399 22.533602 11.8221807v-9.7586273h15.964332z"/></g></svg>