<svg height="67" preserveAspectRatio="xMidYMid" viewBox="0 0 512 67" width="512" xmlns="http://www.w3.org/2000/svg"><path d="m221.034224 43.3028585h33.831915l-17.88911-28.780902-32.832685 52.0371329h-14.942726l39.935489-62.50768944c1.736365-2.52557321 4.630161-4.05139996 7.839922-4.05139996 3.104134 0 5.997979 1.47323786 7.681756 3.94617225l40.093305 62.61291715h-14.942767l-7.050606-11.6281113h-34.253126zm155.216954 11.6281196v-54.29958688h-12.680421v59.61381088c0 1.6310961.631499 3.2095533 1.841568 4.4197053 1.209985 1.2101935 2.841165 1.894182 4.630136 1.894182h57.824973l7.471384-11.6281113zm-209.779619-9.7339376c12.312308 0 22.309332-9.9443847 22.309332-22.256526 0-12.3120998-9.997024-22.30912328-22.309332-22.30912328h-55.473129v65.92769818h12.675395v-54.2995786h41.955846c5.893201 0 10.62854 4.7880106 10.62854 10.6810037 0 5.8929847-4.735339 10.6810452-10.62854 10.6810452l-35.747095-.0526388 37.851599 32.9901685h18.415873l-25.466079-21.3620489zm-133.5021381 21.3620489c-18.2000411 0-32.9694209-14.7324452-32.9694209-32.9375297 0-18.2051261 14.7693798-32.99016848 32.9694209-32.99016848h38.319872c18.2050845 0 32.9639531 14.78504238 32.9639531 32.99016848 0 18.2050845-14.7588686 32.9375297-32.9639531 32.9375297zm37.4674727-11.6281113c11.7914372 0 21.341218-9.5234905 21.341218-21.3094184 0-11.7859778-9.5497808-21.3620489-21.341218-21.3620489h-36.6205411c-11.7859695 0-21.3412264 9.5760711-21.3412264 21.3620489 0 11.7859279 9.5552569 21.3094184 21.3412264 21.3094184zm240.7809144 11.6281113c-18.205126 0-32.990019-14.7324452-32.990019-32.9375297 0-18.2051261 14.784893-32.99016848 32.990019-32.99016848h45.512732l-7.418787 11.62811958h-37.252057c-11.78602 0-21.361874 9.5760711-21.361874 21.3620489 0 11.7859279 9.575854 21.3094184 21.361874 21.3094184h45.723037l-7.4713 11.6281113zm155.059154-11.6281113c-9.734062 0-17.994737-6.5243843-20.520402-15.521703h54.194518l7.471383-11.6281112h-61.665901c2.525665-8.9446882 10.78634-15.5216531 20.520402-15.5216531h37.19946l7.523981-11.62811958h-45.565329c-18.205126 0-32.990018 14.78504238-32.990018 32.99016848 0 18.2050845 14.784892 32.9375297 32.990018 32.9375297h39.093625l7.471301-11.6281113z" fill="#ea1b22"/></svg>