<svg viewBox="0 0 128 128" xmlns="http://www.w3.org/2000/svg"><path d="m21.4 97.6c0 1.8-1.5 3.5-3.5 3.5-1.5 0-2.8.4-4 1.3-1.3.8-2.2 1.9-3 3.2-1.6 2.1-2.4 4.6-2.7 5.5v12.5c0 1.9-1.6 3.5-3.6 3.5-1.9 0-3.5-1.6-3.5-3.5v-26c0-1.9 1.6-3.4 3.5-3.4 2 0 3.6 1.5 3.6 3.4v.5c.4-.5.9-1 1.4-1.3 2.2-1.4 5-2.6 8.3-2.6 2 0 3.5 1.5 3.5 3.4zm-1.9 13c.1-9 7-16.5 16.1-16.5 8.6 0 15.3 6.4 15.9 15.3v.3c0 .1 0 .5-.1.6-.2 1.6-1.6 2.6-3.4 2.6h-21c.3 1.5 1.1 3.2 2.2 4.3 1.4 1.6 4 2.8 6.3 3 2.4.2 5.2-.4 6.8-1.6 1.4-1.4 4.1-1.3 4.9-.2.9.9 1.5 2.9 0 4.3-3.2 3-7.1 4.3-11.8 4.3-8.9 0-15.9-7.5-15.9-16.4zm7.1-3.2h18.6c-.7-2.6-4-6.5-9.7-7-5.6.2-8.3 4.3-8.9 7zm58.3 16.1c0 1.9-1.6 3.6-3.6 3.6-1.8 0-3.2-1.3-3.5-2.8-2.5 1.7-5.7 2.8-9 2.8-8.9 0-16-7.5-16-16.4 0-9 7.1-16.5 16-16.5 3.2 0 6.4 1.1 8.8 2.8v-12.5c0-1.9 1.6-3.6 3.6-3.6s3.6 1.6 3.6 3.6v26.2zm-16-22.2c-2.4 0-4.5 1-6.2 2.7-1.6 1.6-2.6 4-2.6 6.6 0 2.5 1 4.9 2.6 6.5 1.6 1.7 3.8 2.7 6.2 2.7s4.5-1 6.2-2.7c1.6-1.6 2.6-4 2.6-6.5 0-2.6-1-5-2.6-6.6-1.6-1.7-3.7-2.7-6.2-2.7zm28.6-15.4c0 2-1.5 3.6-3.6 3.6-2 0-3.6-1.6-3.6-3.6v-1.4c0-2 1.6-3.6 3.6-3.6s3.6 1.6 3.6 3.6zm0 11.9v25.7c0 2-1.5 3.6-3.6 3.6-2 0-3.6-1.6-3.6-3.6v-25.7c0-2.1 1.6-3.6 3.6-3.6 2.1 0 3.6 1.5 3.6 3.6zm4.5 19.8c1.2-1.6 3.5-1.8 4.9-.5 1.7 1.4 4.7 3 7.2 2.9 1.8 0 3.4-.6 4.5-1.3.9-.8 1.2-1.4 1.2-2 0-.3-.1-.5-.2-.7s-.3-.5-.9-.8c-.9-.7-2.9-1.4-5.3-1.8h-.1c-2-.4-4-.9-5.7-1.7-1.8-.9-3.4-2-4.5-3.8-.7-1.2-1.1-2.6-1.1-4.1 0-3 1.7-5.6 3.9-7.2 2.3-1.6 5.1-2.4 8.1-2.4 4.5 0 7.8 2.2 9.9 3.6 1.6 1.1 2 3.2 1.1 4.9-1.1 1.6-3.2 2-4.9.9-2.1-1.4-4-2.4-6.1-2.4-1.6 0-3.1.5-4 1.2-.9.6-1.1 1.2-1.1 1.5s0 .3.1.5c.1.1.3.4.7.7.9.6 2.6 1.2 4.8 1.6l.1.1h.1c2.2.4 4.2 1 6.1 1.9 1.8.8 3.6 2 4.7 3.9.8 1.3 1.3 2.8 1.3 4.3 0 3.2-1.8 5.9-4.1 7.6-2.4 1.6-5.3 2.6-8.6 2.6-5.1-.1-9.1-2.4-11.7-4.5-1.4-1.3-1.6-3.5-.4-5z" fill="#636466"/><path d="m106.9 62.7c-5 2.6-30.7 13.2-36.2 16-5.5 2.9-8.5 2.8-12.8.8-4.4-2.1-31.7-13.1-36.7-15.5-2.5-1.2-3.8-2.2-3.8-3.1v-9.4s35.6-7.8 41.4-9.8c5.8-2.1 7.8-2.1 12.6-.3 4.9 1.8 34.2 7.1 39 8.8v9.3c.1.9-1 1.9-3.5 3.2z" fill="#a41e11"/><path d="m106.9 53.3c-5 2.6-30.7 13.2-36.2 16-5.5 2.9-8.5 2.8-12.8.8-4.4-2.1-31.7-13.1-36.7-15.5-4.9-2.4-5-4-.2-5.9s32.1-12.6 37.8-14.6c5.8-2.1 7.8-2.1 12.6-.3 4.9 1.8 30.5 12 35.3 13.7 5 1.8 5.2 3.2.2 5.8z" fill="#d82c20"/><path d="m106.9 47.4c-5 2.6-30.7 13.2-36.2 16-5.5 2.9-8.5 2.8-12.8.8-4.4-2.1-31.7-13.2-36.7-15.5-2.5-1.2-3.8-2.2-3.8-3.1v-9.4s35.6-7.8 41.4-9.8c5.8-2.1 7.8-2.1 12.6-.3 4.9 1.8 34.2 7.1 39 8.8v9.3c.1.9-1 1.9-3.5 3.2z" fill="#a41e11"/><path d="m106.9 38c-5 2.6-30.7 13.2-36.2 16-5.5 2.9-8.5 2.8-12.8.8-4.3-2.1-31.7-13.1-36.6-15.5s-5-4-.2-5.9 32.1-12.6 37.8-14.6c5.8-2.1 7.8-2.1 12.6-.3 4.9 1.8 30.5 12 35.3 13.7 4.9 1.7 5.1 3.2.1 5.8z" fill="#d82c20"/><path d="m106.9 31.5c-5 2.6-30.7 13.2-36.2 16-5.5 2.9-8.5 2.8-12.8.8-4.3-2.1-31.7-13.1-36.6-15.5-2.5-1.2-3.8-2.2-3.8-3.1v-9.4s35.6-7.8 41.4-9.8c5.8-2.1 7.8-2.1 12.6-.3 4.9 1.8 34.2 7.1 39 8.8v9.3c0 .8-1.1 1.9-3.6 3.2z" fill="#a41e11"/><path d="m106.9 22.1c-5 2.6-30.7 13.2-36.2 16-5.5 2.9-8.5 2.8-12.8.8-4.3-2.1-31.7-13.1-36.6-15.5s-5-4-.2-5.9 32.1-12.6 37.8-14.6c5.8-2.1 7.8-2.1 12.6-.3 4.9 1.8 30.5 12 35.3 13.7 4.9 1.7 5.1 3.2.1 5.8z" fill="#d82c20"/><path d="m76.2 13-8.1.8-1.8 4.4-2.9-4.9-9.3-.8 6.9-2.5-2-3.8 6.5 2.5 6.1-2-1.7 4zm-10.4 21.1-15-6.3 21.6-3.3z" fill="#fff"/><ellipse cx="45" cy="19.9" fill="#fff" rx="11.5" ry="4.5"/><path d="m85.7 14.2 12.8 5-12.8 5.1z" fill="#7a0c00"/><path d="m71.6 19.8 14.1-5.6v10.1l-1.3.5z" fill="#ad2115"/></svg>