<svg width="250" height="250" viewBox="0 0 250 250" fill="none" xmlns="http://www.w3.org/2000/svg">
<path d="M79.971 82.5134L71.3223 86.8387V162.75L79.971 167.05L80.023 166.988V82.573L79.971 82.5134Z" fill="#8C3123"/>
<path d="M126.258 156.032L79.9717 167.05V82.5134L126.258 93.2913V156.032Z" fill="#E05243"/>
<path d="M105.365 138.782L124.999 141.282L125.122 140.997L125.232 108.804L124.999 108.552L105.365 111.015V138.782Z" fill="#8C3123"/>
<path d="M124.998 156.156L170.025 167.074L170.095 166.961L170.094 82.5889L170.023 82.5134L124.998 93.415V156.156Z" fill="#8C3123"/>
<path d="M144.637 138.782L124.998 141.282V108.552L144.637 111.015V138.782Z" fill="#E05243"/>
<path d="M144.637 97.5871L124.999 101.166L105.365 97.5871L124.974 92.4475L144.637 97.5871Z" fill="#5E1F18"/>
<path d="M144.637 152.175L124.999 148.572L105.365 152.175L124.975 157.649L144.637 152.175Z" fill="#F2B0A9"/>
<path d="M105.365 97.5872L124.999 92.7285L125.158 92.6795V60.1313L124.999 60L105.365 69.8184V97.5872Z" fill="#8C3123"/>
<path d="M144.637 97.5872L124.998 92.7285V60L144.637 69.8184V97.5872Z" fill="#E05243"/>
<path d="M124.999 189.76L105.363 179.945V152.177L124.999 157.034L125.288 157.362L125.209 189.194L124.999 189.76Z" fill="#8C3123"/>
<path d="M124.998 189.76L144.635 179.945V152.177L124.998 157.034V189.76ZM170.025 82.5134L178.677 86.8387V162.75L170.025 167.074V82.5134Z" fill="#E05243"/>
</svg>
