<svg width="250" height="250" viewBox="0 0 250 250" fill="none" xmlns="http://www.w3.org/2000/svg">
<path opacity="0.35" fill-rule="evenodd" clip-rule="evenodd" d="M51.6 91C39.6707 91 30 100.671 30 112.6V177.4C30 189.329 39.6706 199 51.6 199H116.4C128.329 199 138 189.329 138 177.4V112.6C138 100.671 128.329 91 116.4 91H51.6ZM51.6 123.4C45.6353 123.4 40.8 128.235 40.8 134.2V177.4C40.8 183.365 45.6353 188.2 51.6 188.2H94.8C100.765 188.2 105.6 183.365 105.6 177.4V134.2C105.6 128.235 100.765 123.4 94.8 123.4H51.6Z" fill="#FF6A4D"/>
<path opacity="0.1" d="M40.8008 134.2C40.8008 128.235 45.6361 123.4 51.6008 123.4H94.8008C100.765 123.4 105.601 128.235 105.601 134.2V177.4C105.601 183.365 100.765 188.2 94.8008 188.2H51.6008C45.6361 188.2 40.8008 183.365 40.8008 177.4V134.2Z" fill="#FF6A4D"/>
<path opacity="0.35" fill-rule="evenodd" clip-rule="evenodd" d="M160.6 50C154.746 50 150 54.8353 150 60.8V93.2C150 99.1647 154.746 104 160.6 104H192.4C198.254 104 203 99.1647 203 93.2V60.8C203 54.8353 198.254 50 192.4 50H160.6ZM171.2 55.4C168.273 55.4 165.9 57.8177 165.9 60.8V82.4C165.9 85.3823 168.273 87.8 171.2 87.8H192.4C195.327 87.8 197.7 85.3823 197.7 82.4V60.8C197.7 57.8177 195.327 55.4 192.4 55.4H171.2Z" fill="#FF6A4D"/>
<path opacity="0.1" d="M165.9 60.7999C165.9 57.8176 168.273 55.3999 171.2 55.3999H192.4C195.327 55.3999 197.7 57.8176 197.7 60.7999V82.3999C197.7 85.3822 195.327 87.7999 192.4 87.7999H171.2C168.273 87.7999 165.9 85.3822 165.9 82.3999V60.7999Z" fill="#FF6A4D"/>
<path opacity="0.35" fill-rule="evenodd" clip-rule="evenodd" d="M192.8 124C189.044 124 186 126.955 186 130.6V150.4C186 154.045 189.044 157 192.8 157H213.2C216.956 157 220 154.045 220 150.4V130.6C220 126.955 216.956 124 213.2 124H192.8ZM199.6 127.3C197.722 127.3 196.2 128.777 196.2 130.6V143.8C196.2 145.623 197.722 147.1 199.6 147.1H213.2C215.078 147.1 216.6 145.623 216.6 143.8V130.6C216.6 128.777 215.078 127.3 213.2 127.3H199.6Z" fill="#FF6A4D"/>
<path opacity="0.1" d="M196.199 130.6C196.199 128.778 197.721 127.3 199.599 127.3H213.199C215.077 127.3 216.599 128.778 216.599 130.6V143.8C216.599 145.623 215.077 147.1 213.199 147.1H199.599C197.721 147.1 196.199 145.623 196.199 143.8V130.6Z" fill="#FF6A4D"/>
</svg>
