<?xml version="1.0" standalone="no"?><!DOCTYPE svg PUBLIC "-//W3C//DTD SVG 1.1//EN" "http://www.w3.org/Graphics/SVG/1.1/DTD/svg11.dtd"><svg t="1691584892992" class="icon" viewBox="0 0 1024 1024" version="1.1" xmlns="http://www.w3.org/2000/svg" p-id="18014" xmlns:xlink="http://www.w3.org/1999/xlink" width="200" height="200"><path d="M438.9 223.9c-12 0-21.7 9.7-21.7 21.7s9.7 21.7 21.7 21.7h86.9c12 0 21.7-9.7 21.7-21.7s-9.7-21.7-21.7-21.7h-86.9z m0 0M386 864.6H187c-19.2 0-34.8-15.6-34.8-34.8v-199c0-19.2 15.6-34.8 34.8-34.8h199c19.2 0 34.8 15.6 34.8 34.8v199c0 19.2-15.6 34.8-34.8 34.8z m-178.4-55.4h157.9V651.3H207.6v157.9zM858.2 864.6h-199c-19.2 0-34.8-15.6-34.8-34.8v-199c0-19.2 15.6-34.8 34.8-34.8h199c19.2 0 34.8 15.6 34.8 34.8v199c0 19.2-15.6 34.8-34.8 34.8z m-178.5-55.4h157.9V651.3H679.7v157.9z" fill="#8a8a8a" p-id="18015"></path><path d="M687.7 442.8H357.5c-19.2 0-34.8-15.4-34.8-34.4v-237c0-19 15.6-34.4 34.8-34.4h330.2c19.2 0 34.8 15.4 34.8 34.4v46.1c0 15.3-12.4 27.7-27.7 27.7-15.3 0-27.7-12.4-27.7-27.7v-25.1h-289v195.2h289.1v-11.9c0-15.3 12.4-27.7 27.7-27.7 15.3 0 27.7 12.4 27.7 27.7v32.8c-0.1 18.9-15.7 34.3-34.9 34.3zM757.8 651.3h-0.5c-15.3-0.3-27.5-12.9-27.2-28.2l1.2-68.8H314.6l-1.2 69.8c-0.3 15.1-12.6 27.2-27.7 27.2h-0.5c-15.3-0.3-27.5-12.9-27.2-28.2l1.7-97c0.3-15.1 12.6-27.2 27.7-27.2h472.2c7.4 0 14.5 3 19.7 8.3 5.2 5.3 8.1 12.5 7.9 19.9l-1.7 97c-0.3 15.1-12.6 27.2-27.7 27.2z" fill="#8a8a8a" p-id="18016"></path><path d="M522.1 554.3h-0.6c-15.3-0.3-27.4-13-27-28.3l1.8-78.7c0.3-15.1 12.7-27.1 27.6-27.1h0.6c15.3 0.3 27.4 13 27 28.3l-1.8 78.7c-0.3 15.1-12.6 27.1-27.6 27.1zM694.4 331.4c-15.3 0-27.7-12.4-27.7-27.7v-13.1c0-15.3 12.4-27.7 27.7-27.7 15.3 0 27.7 12.4 27.7 27.7v13.1c0 15.3-12.4 27.7-27.7 27.7z" fill="#8a8a8a" p-id="18017"></path></svg>