<?xml version="1.0" standalone="no"?><!DOCTYPE svg PUBLIC "-//W3C//DTD SVG 1.1//EN" "http://www.w3.org/Graphics/SVG/1.1/DTD/svg11.dtd"><svg t="1691484495214" class="icon" viewBox="0 0 1024 1024" version="1.1" xmlns="http://www.w3.org/2000/svg" p-id="8792" xmlns:xlink="http://www.w3.org/1999/xlink" width="200" height="200"><path d="M106.666667 192a21.333333 21.333333 0 1 0 0 42.666667h85.333333a21.333333 21.333333 0 0 0 0-42.666667H106.666667z m0 298.666667a21.333333 21.333333 0 0 0 0 42.666666h85.333333a21.333333 21.333333 0 0 0 0-42.666666H106.666667z m0 298.666666a21.333333 21.333333 0 0 0 0 42.666667h85.333333a21.333333 21.333333 0 0 0 0-42.666667H106.666667zM320 192a21.333333 21.333333 0 0 0 0 42.666667h597.333333a21.333333 21.333333 0 0 0 0-42.666667H320z m0 298.666667a21.333333 21.333333 0 0 0 0 42.666666h597.333333a21.333333 21.333333 0 0 0 0-42.666666H320z m0 298.666666a21.333333 21.333333 0 0 0 0 42.666667h597.333333a21.333333 21.333333 0 0 0 0-42.666667H320z" fill="#2c2c2c" p-id="8793"></path></svg>