<?xml version="1.0" standalone="no"?><!DOCTYPE svg PUBLIC "-//W3C//DTD SVG 1.1//EN" "http://www.w3.org/Graphics/SVG/1.1/DTD/svg11.dtd"><svg t="1691481899635" class="icon" viewBox="0 0 1024 1024" version="1.1" xmlns="http://www.w3.org/2000/svg" p-id="7722" xmlns:xlink="http://www.w3.org/1999/xlink" width="200" height="200"><path d="M878.592 250.88q29.696 0 48.128 11.264t24.576 29.696 0 41.472-26.624 45.568q-82.944 92.16-159.744 180.224t-148.48 164.864q-19.456 20.48-45.568 31.744t-53.76 11.776-53.248-8.704-43.008-28.672q-39.936-44.032-82.944-90.112l-88.064-92.16q-43.008-46.08-85.504-90.624t-79.36-86.528q-17.408-19.456-22.528-40.448t1.024-38.4 23.552-28.672 45.056-11.264q35.84 0 98.816-0.512t137.728-0.512l153.6 0 150.528 0 125.952 0 79.872 0z" p-id="7723" fill="#617def"></path></svg>