<?xml version="1.0" standalone="no"?><!DOCTYPE svg PUBLIC "-//W3C//DTD SVG 1.1//EN" "http://www.w3.org/Graphics/SVG/1.1/DTD/svg11.dtd"><svg t="1690256456934" class="icon" viewBox="0 0 1024 1024" version="1.1" xmlns="http://www.w3.org/2000/svg" p-id="5235" xmlns:xlink="http://www.w3.org/1999/xlink" width="200" height="200"><path d="M0 0m0 0l1024 0q0 0 0 0l0 1024q0 0 0 0l-1024 0q0 0 0 0l0-1024q0 0 0 0Z" fill="#ffffff" fill-opacity="0" p-id="5236"></path><path d="M210.478545 846.941091V177.152c0-24.669091 13.032727-47.010909 33.978182-59.112727 21.410909-12.567273 47.476364-12.567273 68.421818 0l580.421819 334.661818c20.945455 12.567273 33.978182 34.909091 33.978181 59.112727 0 24.669091-13.032727 47.010909-33.978181 59.112727l-580.421819 335.127273c-20.945455 12.101818-47.010909 12.101818-68.421818 0-20.945455-12.101818-33.978182-34.443636-33.978182-59.112727z m65.163637 11.170909c0.930909 0 2.327273 0.465455 3.258182 0.465455 0.930909 0 1.861818-0.465455 2.792727-0.465455l2.792727-1.396364 580.421818-334.661818c0.465455-0.930909 1.396364-1.396364 2.327273-1.861818 0.465455-0.930909 0.930909-1.861818 1.861818-2.327273 0.465455-0.930909 0.465455-1.861818 0.930909-2.792727 0-0.930909 0.465455-1.861818 0.465455-3.258182 0-0.930909-0.465455-1.861818-0.465455-2.792727-0.465455-0.930909-0.465455-1.861818-0.930909-2.792727a8.192 8.192 0 0 1-1.861818-2.327273 10.146909 10.146909 0 0 1-2.327273-1.861818l-580.421818-335.127273c-0.930909-0.465455-1.861818-0.465455-2.792727-0.930909-0.930909-0.465455-1.861818-0.465455-2.792727-0.465455-0.930909 0-2.327273 0-3.258182 0.465455-0.930909 0.465455-1.861818 0.465455-2.792727 0.930909-0.465455 0.930909-1.396364 1.396364-2.327273 1.861818-0.465455 0.930909-0.930909 1.861818-1.861818 2.327273-0.465455 0.930909-0.465455 1.861818-0.930909 2.792727 0 0.930909-0.465455 1.861818-0.465455 3.258182v669.789091c0 0.930909 0.465455 1.861818 0.465455 3.258182 0.465455 0.930909 0.465455 1.396364 0.930909 2.327272 0.930909 0.930909 1.396364 1.861818 1.861818 2.327273 0.930909 0.930909 1.861818 1.396364 2.327273 1.861818l2.792727 1.396364z" fill="#ffffff" p-id="5237"></path></svg>