<?xml version="1.0" standalone="no"?><!DOCTYPE svg PUBLIC "-//W3C//DTD SVG 1.1//EN" "http://www.w3.org/Graphics/SVG/1.1/DTD/svg11.dtd"><svg t="1691584399767" class="icon" viewBox="0 0 1024 1024" version="1.1" xmlns="http://www.w3.org/2000/svg" p-id="4361" xmlns:xlink="http://www.w3.org/1999/xlink" width="200" height="200"><path d="M1008.64 995.84H12.8V54.784H1008.64v941.056zM35.84 972.288h949.248V78.336H35.84v893.952z" p-id="4362" fill="#2c2c2c"></path><path d="M996.864 380.928H24.576c-6.656 0-11.776-5.12-11.776-11.776s5.12-11.776 11.776-11.776h972.8c6.656 0 11.776 5.12 11.776 11.776s-5.632 11.776-12.288 11.776z m0 302.08H24.576c-6.656 0-11.776-5.12-11.776-11.776 0-6.656 5.12-11.776 11.776-11.776h972.8c6.656 0 11.776 5.12 11.776 11.776-0.512 6.144-5.632 11.776-12.288 11.776z m-322.048 165.888H328.704c-6.656 0-11.776-5.12-11.776-11.776 0-6.656 5.12-11.776 11.776-11.776h346.112c6.656 0 11.776 5.12 11.776 11.776 0 6.656-5.12 11.776-11.776 11.776zM674.816 537.088H328.704c-6.656 0-11.776-5.12-11.776-11.776 0-6.656 5.12-11.776 11.776-11.776h346.112c6.656 0 11.776 5.12 11.776 11.776 0 6.144-5.12 11.776-11.776 11.776zM674.816 234.496H328.704c-6.656 0-11.776-5.12-11.776-11.776s5.12-11.776 11.776-11.776h346.112c6.656 0 11.776 5.12 11.776 11.776s-5.12 11.776-11.776 11.776z" p-id="4363" fill="#2c2c2c"></path></svg>