<?xml version="1.0" standalone="no"?><!DOCTYPE svg PUBLIC "-//W3C//DTD SVG 1.1//EN" "http://www.w3.org/Graphics/SVG/1.1/DTD/svg11.dtd"><svg t="1690511684481" class="icon" viewBox="0 0 1024 1024" version="1.1" xmlns="http://www.w3.org/2000/svg" p-id="5537" xmlns:xlink="http://www.w3.org/1999/xlink" width="200" height="200"><path d="M485.030613 709.080969c-99.235279-8.435906-199.354967-66.398742-272.919694-157.991816-14.309292-17.824253-30.784253-40.886931-36.612285-51.250396l-10.578898-18.833386 7.676221-15.703938c10.828347-22.121576 53.914962-74.880003 84.631184-103.611972 42.599057-39.866458 94.7452-72.873073 142.299217-90.085042 111.061421-40.195277 229.58363-21.146457 328.603476 52.81512 47.962206 35.807245 108.43087 101.559689 128.579532 139.804729 7.165984 13.594961 7.370079 15.216378 3.356221 24.842835-11.293229 27.031182-64.33512 91.729137-101.605043 123.964729-83.2252 71.931971-175.555282 104.371657-273.429931 96.049137z m107.376382-64.040317c68.57575-20.545513 127.525044-63.235278 188.526621-136.539217l23.448189-28.165041-12.676536-15.227717C704.658967 360.521587 631.865264 315.212609 535.748095 305.756231c-45.53575-4.47874-108.782366 9.274961-155.508666 33.800316-42.803151 22.473072-96.26457 69.040632-137.775123 119.996225l-17.574804 21.577323 15.851339 18.776694c24.105828 28.539214 65.174175 70.004412 85.288822 86.1052 38.437797 30.72756 85.855751 54.357167 127.502366 63.496065 38.267718 8.413229 102.818271 6.326929 138.863627-4.467402z m-97.568507-52.883151c-34.129135-4.308662-73.167877-36.850395-86.275279-71.886617-18.141733-48.529136 1.04315-105.278744 45.649135-135.07654 20.919686-13.969134 31.226458-16.554331 65.310239-16.40693 23.017324 0.113386 27.314647 1.077165 43.971025 10.011969 23.425513 12.574489 42.780474 31.884096 53.85827 53.744884 7.937008 15.658583 8.685355 19.84252 8.685354 48.642521 0 27.632127-0.929764 33.312757-7.506142 46.363466-10.442835 20.704253-37.122521 47.021104-56.999057 56.205357-18.765355 8.674016-41.646616 11.565355-66.693545 8.390551z m29.956536-53.710868c31.033702-6.009449 50.456695-31.61197 48.143624-63.507404-1.190551-16.350237-2.449134-19.094174-14.604095-31.680001-27.337324-28.301103-55.570396-29.899844-81.796538-4.648819-15.533859 14.96693-20.001261 24.457324-20.001261 42.565041s4.456063 27.598111 20.001261 42.599056c17.257323 16.64504 25.341733 19.105512 48.257009 14.672127z" fill="#707070" p-id="5538"></path><path d="M448.372974 480.665213a65.434963 64.006301 0 1 0 130.869926 0 65.434963 64.006301 0 1 0-130.869926 0Z" fill="#707070" p-id="5539"></path></svg>