<?xml version="1.0" encoding="UTF-8"?>
<svg id="_图层_2" data-name="图层 2" xmlns="http://www.w3.org/2000/svg" viewBox="0 0 202.49 210.45">
  <defs>
    <style>
      .cls-1, .cls-2 {
        stroke-width: 2px;
      }

      .cls-1, .cls-2, .cls-3, .cls-4 {
        fill: none;
        stroke-miterlimit: 10;
      }

      .cls-1, .cls-3 {
        opacity: 0;
        stroke: #fbb03b;
      }

      .cls-2 {
        stroke: #fc3;
      }

      .cls-4 {
        stroke: #fcc003;
        stroke-width: 20px;
      }

      .cls-5 {
        fill: #fc3;
      }
    </style>
  </defs>
  <g id="_图层_1-2" data-name="图层 1">
    <path class="cls-3" d="M200.58,81.1c-.66-5.09-1.73-10.13-3.24-15.08-.81-2.68-1.76-5.32-2.83-7.93-.28-.68-.55-1.34-.84-2.01-.03-.06-.05-.12-.08-.18-.21-.48-.42-.96-.65-1.45-.66-1.44-1.35-2.84-2.08-4.24-.49-.93-1-1.85-1.51-2.76-.68-1.21-1.39-2.4-2.14-3.59-3.4-5.42-7.43-10.56-12.1-15.34-4.66-4.78-9.7-8.93-15.04-12.48-6.9-4.61-14.27-8.16-21.91-10.71-4.91-1.64-9.93-2.85-15.02-3.64-4.15-.65-8.34-1.01-12.53-1.09-1.17-.02-2.34-.02-3.52,0-.58,.02-1.16,.03-1.75,.05-1.69,.05-3.37,.16-5.06,.33-.25,.01-.48,.04-.73,.06-3.35,.33-6.67,.84-9.96,1.55-3.08,.64-6.13,1.45-9.13,2.41-2.84,.89-5.64,1.95-8.4,3.15-2.64,1.13-5.24,2.39-7.77,3.8-2.46,1.33-4.86,2.8-7.19,4.38-2.28,1.54-4.5,3.19-6.66,4.94-2.11,1.71-4.16,3.53-6.15,5.46h0c-21.24,20.64-30.44,48.96-27.45,76.26,2.16,19.73,10.7,38.94,25.65,54.28,22.64,23.22,54.54,32.02,84.18,26.21h.01c17.01-3.32,33.27-11.46,46.62-24.41,1.98-1.93,3.86-3.93,5.64-5.98,.3-.35,.6-.71,.89-1.06,1.49-1.77,2.9-3.6,4.23-5.46,.43-.59,.85-1.19,1.25-1.79,.34-.49,.68-.98,1-1.49,.12-.18,.25-.37,.36-.55,.31-.47,.61-.94,.89-1.43,.36-.57,.7-1.15,1.05-1.73,.01-.02,.02-.04,.03-.06,.18-.31,.36-.62,.54-.93,1.25-2.19,2.42-4.44,3.47-6.72,1.27-2.72,2.41-5.49,3.39-8.29,1.04-2.97,1.93-5.98,2.66-9.04,.79-3.26,1.4-6.56,1.82-9.9,.47-3.65,.71-7.33,.74-11.01,.03-4.18-.21-8.37-.74-12.53Zm-49.7-27.44c-.34,3-1.47,5.57-3.45,7.49-.12,.11-.25,.24-.37,.35-2.24,1.97-5.21,2.92-8.6,2.95-5.24,.05-11.48-2.12-17.49-6.17-2.72-1.85-5.41-4.08-7.92-6.67-2.52-2.58-4.68-5.3-6.43-8.07-3.93-6.12-5.94-12.41-5.75-17.65h0c.13-3.37,1.17-6.31,3.21-8.48,.11-.12,.24-.25,.36-.37,1.98-1.93,4.59-2.97,7.6-3.23,4.53-.41,9.93,.99,15.35,3.97,3.93,2.13,7.85,5.11,11.45,8.8,3.61,3.7,6.48,7.7,8.51,11.67,2.83,5.49,4.09,10.92,3.56,15.42Zm2.8,55.08c-3.86-3.96-6.38-8.5-7.36-12.7-.94-3.99-.48-7.65,1.54-10.19,.22-.27,.44-.52,.69-.76,1.91-1.86,4.59-2.66,7.62-2.49,5.03,.27,10.99,3.18,15.93,8.26,4.94,5.06,7.69,11.08,7.82,16.1,.08,3.03-.78,5.68-2.69,7.54-.25,.24-.5,.46-.78,.67-2.59,1.95-6.28,2.31-10.25,1.26-4.17-1.09-8.66-3.72-12.52-7.69Z"/>
    <line class="cls-2" x1="44.09" y1="27.02" x2="173.56" y2="158.77"/>
    <line class="cls-2" x1="179.23" y1="152.82" x2="50.26" y2="21.58"/>
    <line class="cls-2" x1="184.37" y1="146.34" x2="56.94" y2="16.67"/>
    <polyline class="cls-2" points="64.17 12.3 64.19 12.32 146.45 96.03"/>
    <line class="cls-2" x1="188.98" y1="139.31" x2="166.4" y2="116.33"/>
    <polyline class="cls-2" points="71.96 8.52 72 8.55 106.59 43.75"/>
    <polyline class="cls-2" points="193.01 131.69 192.98 131.66 176.68 115.07"/>
    <line class="cls-2" x1="148" y1="85.89" x2="121" y2="58.43"/>
    <polyline class="cls-2" points="80.39 5.39 80.42 5.42 100.83 26.17"/>
    <polyline class="cls-2" points="196.41 123.44 196.34 123.36 180.17 106.9"/>
    <line class="cls-2" x1="156.33" y1="82.65" x2="138.56" y2="64.58"/>
    <polyline class="cls-2" points="89.55 2.99 89.57 3.01 104.04 17.73"/>
    <polyline class="cls-2" points="147.19 61.64 198.98 114.33 199.09 114.44"/>
    <polyline class="cls-2" points="99.55 1.45 99.56 1.46 112.03 14.15"/>
    <polyline class="cls-2" points="151.03 53.83 200.77 104.43 200.91 104.59"/>
    <polyline class="cls-2" points="110.64 1.01 110.65 1.02 127.43 18.1"/>
    <polyline class="cls-2" points="147.46 38.48 201.49 93.47 201.65 93.63"/>
    <line class="cls-2" x1="200.91" y1="81.15" x2="123.21" y2="2.09"/>
    <line class="cls-2" x1="197.67" y1="66.14" x2="138.28" y2="5.71"/>
    <line class="cls-2" x1="187.5" y1="44.08" x2="160.27" y2="16.37"/>
    <path class="cls-4" d="M59.08,48.34c-.96,.91-2.39,2.3-4.01,4.09-12.43,13.72-14.41,26.46-19.03,34.77-4.19,7.54-13.15,16.14-34.39,19.7"/>
    <path class="cls-4" d="M87.85,77.62c-.96,.91-2.39,2.3-4.01,4.09-12.43,13.72-14.41,26.46-19.03,34.77-4.19,7.54-13.15,16.14-34.39,19.7"/>
    <path class="cls-4" d="M122.38,112.75c-.96,.91-2.39,2.3-4.01,4.09-12.43,13.72-14.41,26.46-19.03,34.77-4.19,7.54-13.15,16.14-34.39,19.7"/>
    <path class="cls-4" d="M151.15,142.03c-.96,.91-2.39,2.3-4.01,4.09-12.43,13.72-14.41,26.46-19.03,34.77-4.19,7.54-13.15,16.14-34.39,19.7"/>
    <line class="cls-1" x1="44.09" y1="27.02" x2="50.01" y2="21.32"/>
    <path class="cls-5" d="M151.03,53.83c-.34,2.98-1.48,5.55-3.47,7.45-.12,.11-.25,.23-.37,.35-2.25,1.96-5.23,2.91-8.63,2.94-5.26,.05-11.52-2.11-17.56-6.15-2.73-1.84-5.43-4.06-7.95-6.64-2.53-2.57-4.69-5.28-6.46-8.04-3.94-6.1-5.96-12.36-5.77-17.57h0c.13-3.36,1.18-6.28,3.22-8.45,.11-.12,.24-.25,.36-.37,1.99-1.92,4.61-2.96,7.62-3.22,4.55-.41,9.96,.99,15.4,3.95,3.94,2.12,7.88,5.09,11.49,8.76,3.62,3.69,6.5,7.67,8.54,11.62,2.84,5.46,4.11,10.88,3.57,15.35Z"/>
    <path class="cls-5" d="M180.17,106.9c.08,3.01-.78,5.66-2.7,7.51-.25,.23-.51,.46-.78,.66-2.6,1.94-6.3,2.3-10.28,1.26-4.19-1.08-8.7-3.71-12.56-7.66-3.88-3.94-6.41-8.47-7.39-12.64-.94-3.97-.48-7.62,1.55-10.14,.22-.27,.44-.52,.69-.76,1.92-1.85,4.61-2.64,7.64-2.48,5.04,.27,11.03,3.17,15.99,8.22,4.96,5.03,7.72,11.03,7.85,16.03Z"/>
    <path class="cls-1" d="M184.38,146.33c.43-.59,.86-1.18,1.26-1.79,.34-.49,.68-.98,1-1.48,.12-.18,.25-.37,.36-.55,.31-.47,.61-.94,.9-1.42,.36-.57,.7-1.14,1.05-1.73l.03-.06c.19-.31,.36-.61,.55-.93,1.25-2.2,2.4-4.43,3.46-6.72,1.27-2.71,2.38-5.48,3.36-8.3,1.03-2.96,1.91-5.97,2.64-9.03,.77-3.26,1.36-6.57,1.78-9.9,.45-3.64,.7-7.3,.72-10.97,.04-4.17-.2-8.33-.72-12.46-.64-5.05-1.7-10.05-3.18-14.94h0c-.8-2.64-1.72-5.26-2.76-7.82-.28-.67-.56-1.34-.85-2-.03-.06-.05-.12-.08-.18-.21-.48-.42-.96-.65-1.44-.66-1.43-1.35-2.83-2.08-4.22-.5-.93-1-1.84-1.52-2.75-.71-1.24-1.45-2.46-2.24-3.67h0c-6.84-10.66-15.89-19.77-26.35-26.82-6.96-4.7-14.53-8.48-22.52-11.19-4.95-1.7-10.06-2.98-15.26-3.82-2.48-.4-4.97-.69-7.48-.89-1.72-.13-3.43-.22-5.16-.26-1.18-.02-2.35-.02-3.54-.01-.58,.02-1.17,.03-1.75,.05-1.69,.06-3.39,.17-5.07,.33-.25,.02-.48,.05-.72,.07-3.35,.34-6.69,.86-9.98,1.55-3.08,.64-6.14,1.45-9.15,2.41-2.86,.91-5.67,1.95-8.43,3.14-2.66,1.13-5.27,2.39-7.81,3.77-2.28,1.24-4.51,2.56-6.67,3.98"/>
    <path class="cls-1" d="M180.72,151.88c-.28,.44-.86,.82-1.24,1.2l-.25-.26c.3-.35,.6-.7,.9-1.05"/>
    <line class="cls-1" x1="173.57" y1="158.77" x2="179.48" y2="153.07"/>
  </g>
</svg>